<?xml version="1.0" encoding="UTF-8"?>
<!DOCTYPE svg PUBLIC "-//W3C//DTD SVG 1.1//EN" "http://www.w3.org/Graphics/SVG/1.1/DTD/svg11.dtd">
<!-- Creator: CorelDRAW -->
<svg xmlns="http://www.w3.org/2000/svg" xml:space="preserve" width="106.588mm" height="80.8396mm" version="1.1" style="shape-rendering:geometricPrecision; text-rendering:geometricPrecision; image-rendering:optimizeQuality; fill-rule:evenodd; clip-rule:evenodd"
viewBox="0 0 10637.44 8067.79"
 xmlns:xlink="http://www.w3.org/1999/xlink"
 xmlns:xodm="http://www.corel.com/coreldraw/odm/2003">
 <defs>
  <style type="text/css">
   <![CDATA[
    .fil0 {fill:white;fill-rule:nonzero}
   ]]>
  </style>
 </defs>
 <g id="Camada_x0020_1">
  <metadata id="CorelCorpID_0Corel-Layer"/>
  <path class="fil0" d="M249.5 4742.48c-137.79,0 -249.5,-111.71 -249.5,-249.5 0,-137.79 111.71,-249.5 249.5,-249.5l2192.72 0 720.12 -3300.33 491.21 23.38 386.77 3276.94 240.02 0 529.37 -4243.48 496.08 10.72 348.21 4232.76 358 0 292.82 -2024.63 491.21 -11.7 393.64 2036.33 406.16 0 442.13 -1587.66 470.74 -27.29 653.74 1614.94 1225.51 0c137.79,0 249.5,111.71 249.5,249.5 0,137.79 -111.71,249.5 -249.5,249.5l-2414.67 0 -421.39 1513.15 -484.38 -19.49 -288.74 -1493.66 -335.65 0 -480.95 3325.32 -495.1 -15.6 -272.28 -3309.72 -474.07 0 -322.96 2588.94 -495.11 -0.97 -305.46 -2587.97 -753.59 0 -353.01 1617.9 -479.51 25.35 -546.95 -1643.25 -1214.63 0zm2702.98 -499l585.82 0 -205.65 -1742.34 -380.17 1742.34zm1830.49 0l370.77 0 -147.34 -1791 -223.42 1791zm1732.32 0l167.02 0 -95.54 -494.23 -71.48 494.23zm1596.94 0l512.47 0 -303.61 -750.01 -208.86 750.01zm-655.38 499l-170.74 0 69.96 361.89 100.78 -361.89zm-1517.04 0l-244.78 0 88.75 1078.78 156.03 -1078.78zm-1721.73 0l-118.88 0 57.79 489.65 61.09 -489.65zm-1884.74 0l-345.6 0 208.75 627.15 136.85 -627.15z"/>
 </g>
</svg>
